<svg width="66" height="44" viewBox="0 0 66 44" fill="none" xmlns="http://www.w3.org/2000/svg">
<path d="M8.28137 34.8908C8.8241 35.0686 9.25455 35.368 9.5727 35.7891C9.89086 36.2009 10.0499 36.7155 10.0499 37.3331C10.0499 38.1846 9.72242 38.8444 9.0674 39.3122C8.41238 39.7707 7.45791 40 6.20401 40H1.3194V30.1746H5.92329C7.08361 30.1746 7.97725 30.4039 8.6042 30.8624C9.23116 31.3116 9.54463 31.9339 9.54463 32.7292C9.54463 33.2158 9.43234 33.6463 9.20776 34.0206C8.98318 34.3949 8.67439 34.685 8.28137 34.8908ZM3.14411 31.6063V34.3153H5.72678C6.36309 34.3153 6.84968 34.203 7.18655 33.9785C7.53277 33.7445 7.70589 33.4077 7.70589 32.9679C7.70589 32.5187 7.53277 32.1818 7.18655 31.9572C6.84968 31.7233 6.36309 31.6063 5.72678 31.6063H3.14411ZM6.09172 38.5683C7.5047 38.5683 8.21119 38.0958 8.21119 37.1506C8.21119 36.2055 7.5047 35.733 6.09172 35.733H3.14411V38.5683H6.09172ZM11.8289 32.5047H13.5834V40H11.8289V32.5047ZM12.7132 31.2695C12.395 31.2695 12.1284 31.1712 11.9131 30.9747C11.6979 30.7688 11.5903 30.5162 11.5903 30.2168C11.5903 29.9173 11.6979 29.6693 11.9131 29.4728C12.1284 29.267 12.395 29.164 12.7132 29.164C13.0314 29.164 13.298 29.2623 13.5133 29.4588C13.7285 29.6459 13.8361 29.8846 13.8361 30.1746C13.8361 30.4834 13.7285 30.7455 13.5133 30.9607C13.3074 31.1665 13.0407 31.2695 12.7132 31.2695ZM18.9462 36.7857L17.6408 38.0209V40H15.8863V29.5851H17.6408V35.8734L21.2762 32.5047H23.3816L20.2515 35.6488L23.6764 40H21.5429L18.9462 36.7857ZM31.5406 36.2944C31.5406 36.4161 31.5312 36.5892 31.5125 36.8138H25.6313C25.7343 37.3659 26.001 37.8057 26.4314 38.1332C26.8712 38.4513 27.4139 38.6104 28.0596 38.6104C28.8831 38.6104 29.5615 38.339 30.0949 37.7963L31.0353 38.8771C30.6984 39.2795 30.2727 39.5836 29.758 39.7895C29.2433 39.9953 28.6632 40.0983 28.0175 40.0983C27.194 40.0983 26.4688 39.9345 25.8419 39.607C25.2149 39.2795 24.7284 38.8256 24.3821 38.2455C24.0453 37.656 23.8768 36.9916 23.8768 36.2523C23.8768 35.5224 24.0406 34.8674 24.3681 34.2873C24.705 33.6977 25.1682 33.2392 25.7577 32.9117C26.3472 32.5842 27.0116 32.4204 27.7508 32.4204C28.4807 32.4204 29.131 32.5842 29.7019 32.9117C30.282 33.2299 30.7312 33.6837 31.0493 34.2732C31.3768 34.8534 31.5406 35.5271 31.5406 36.2944ZM27.7508 33.8241C27.1894 33.8241 26.7121 33.9925 26.3191 34.3294C25.9355 34.6569 25.7015 35.0967 25.6173 35.6488H29.8703C29.7954 35.106 29.5662 34.6662 29.1825 34.3294C28.7989 33.9925 28.3216 33.8241 27.7508 33.8241ZM37.4368 30.1746C38.2883 30.1746 39.0276 30.315 39.6545 30.5957C40.2908 30.8765 40.7774 31.2788 41.1143 31.8028C41.4512 32.3269 41.6196 32.9491 41.6196 33.6697C41.6196 34.3808 41.4512 35.0031 41.1143 35.5365C40.7774 36.0605 40.2908 36.4629 39.6545 36.7436C39.0276 37.0243 38.2883 37.1647 37.4368 37.1647H35.2191V40H33.3944V30.1746H37.4368ZM37.3526 35.6207C38.148 35.6207 38.7515 35.4523 39.1633 35.1154C39.575 34.7785 39.7808 34.2966 39.7808 33.6697C39.7808 33.0427 39.575 32.5608 39.1633 32.2239C38.7515 31.8871 38.148 31.7186 37.3526 31.7186H35.2191V35.6207H37.3526ZM46.0682 32.4204C47.1724 32.4204 48.0146 32.6871 48.5947 33.2205C49.1842 33.7445 49.479 34.5399 49.479 35.6067V40H47.8227V39.0876C47.6075 39.4152 47.2987 39.6678 46.8963 39.8456C46.5033 40.014 46.0261 40.0983 45.4646 40.0983C44.9032 40.0983 44.4119 40.0047 43.9908 39.8175C43.5697 39.621 43.2422 39.3543 43.0083 39.0175C42.7837 38.6712 42.6714 38.2829 42.6714 37.8525C42.6714 37.1787 42.9194 36.6407 43.4154 36.2383C43.9207 35.8266 44.7114 35.6207 45.7875 35.6207H47.7245V35.5084C47.7245 34.9844 47.5654 34.582 47.2472 34.3013C46.9384 34.0206 46.4752 33.8802 45.8577 33.8802C45.4366 33.8802 45.0202 33.9457 44.6084 34.0767C44.2061 34.2077 43.8645 34.3902 43.5838 34.6241L42.896 33.3468C43.289 33.0474 43.7616 32.8181 44.3137 32.6591C44.8658 32.5 45.4506 32.4204 46.0682 32.4204ZM45.8296 38.821C46.2694 38.821 46.6577 38.7227 46.9946 38.5262C47.3408 38.3203 47.5841 38.0303 47.7245 37.656V36.7857H45.9138C44.9032 36.7857 44.3979 37.1179 44.3979 37.7823C44.3979 38.1004 44.5242 38.3531 44.7769 38.5402C45.0295 38.7274 45.3804 38.821 45.8296 38.821ZM53.401 33.5995C53.9063 32.8135 54.7953 32.4204 56.0679 32.4204V34.0908C55.9182 34.0627 55.7825 34.0486 55.6609 34.0486C54.9778 34.0486 54.4444 34.2498 54.0607 34.6522C53.6771 35.0452 53.4852 35.616 53.4852 36.3646V40H51.7307V32.5047H53.401V33.5995ZM60.6162 36.7857L59.3108 38.0209V40H57.5563V29.5851H59.3108V35.8734L62.9462 32.5047H65.0516L61.9216 35.6488L65.3464 40H63.2129L60.6162 36.7857Z" fill="#297FFF"/>
<path d="M36.6747 10.3653H32.8799" stroke="#297FFF" stroke-width="1.94118" stroke-miterlimit="10" stroke-linecap="round" stroke-linejoin="bevel"/>
<path d="M42.3668 20.7158L32.8799 10.3653" stroke="#297FFF" stroke-width="1.94118" stroke-miterlimit="10" stroke-linecap="round" stroke-linejoin="bevel"/>
<path d="M36.751 20.7159C36.751 23.4357 39.2555 25.7023 42.3673 25.7023C45.479 25.7023 47.9835 23.4357 47.9835 20.7159C47.9835 17.9961 45.479 15.7296 42.3673 15.7296C40.3181 15.7296 38.4966 16.7117 37.5099 18.2227" stroke="#297FFF" stroke-width="1.94118" stroke-miterlimit="10" stroke-linecap="round" stroke-linejoin="bevel"/>
<path d="M23.9999 17.0895C23.6964 17.0139 23.3169 17.0139 22.9374 17.0139C20.2811 17.0139 18.0801 18.9782 18.0801 21.3959C18.0801 23.8135 20.2811 25.7778 22.9374 25.7778C25.5938 25.7778 27.7947 23.8135 27.7947 21.3959" stroke="#297FFF" stroke-width="1.94118" stroke-miterlimit="10" stroke-linecap="round" stroke-linejoin="bevel"/>
<path d="M32.4395 5.42101C33.5921 5.0367 34.2459 3.89126 33.8998 2.86259C33.5536 1.83392 32.3387 1.31156 31.1861 1.69587C30.0335 2.08018 29.3797 3.22562 29.7258 4.25429C30.072 5.28296 31.2869 5.80532 32.4395 5.42101Z" stroke="#297FFF" stroke-width="1.94118" stroke-miterlimit="10" stroke-linecap="round" stroke-linejoin="bevel"/>
<path d="M29.6164 7.19226C27.6431 9.30768 26.1251 12.1786 25.8975 13.3119" stroke="#297FFF" stroke-width="1.94118" stroke-miterlimit="10" stroke-linecap="round" stroke-linejoin="bevel"/>
<path d="M29.4646 16.6361C27.2636 17.3161 25.0627 21.3203 22.5581 20.867L29.4646 16.6361Z" fill="#297FFF"/>
<path d="M29.4646 16.6361C27.2636 17.3161 25.0627 21.3203 22.5581 20.867" stroke="#297FFF" stroke-width="1.94118" stroke-miterlimit="10" stroke-linecap="round" stroke-linejoin="round"/>
<path d="M25.9731 13.3873C27.7946 13.1607 30.8305 14.2184 31.8171 15.5783C33.1073 17.3915 31.8171 19.8092 30.451 21.3957" stroke="#297FFF" stroke-width="1.94118" stroke-miterlimit="10" stroke-linecap="round" stroke-linejoin="round"/>
<path d="M34.0947 16.1074C34.4719 16.1074 34.7777 15.8029 34.7777 15.4274C34.7777 15.0519 34.4719 14.7474 34.0947 14.7474C33.7174 14.7474 33.4116 15.0519 33.4116 15.4274C33.4116 15.8029 33.7174 16.1074 34.0947 16.1074Z" fill="#297FFF"/>
</svg>
